<?xml version="1.0" standalone="no"?>
<!DOCTYPE svg PUBLIC "-//W3C//DTD SVG 1.0//EN" "http://www.w3.org/TR/2001/REC-SVG-20010904/DTD/svg10.dtd">
<svg xmlns="http://www.w3.org/2000/svg" xmlns:xlink="http://www.w3.org/1999/xlink" id="body_1" width="24" height="18">

<g transform="matrix(0.046875 0 0 0.046875 -0 6)">
    <path d="M46.32 28C 20.816261 28.066246 0.19042969 48.786037 0.24008942 74.2898C 0.28974915 99.79358 20.996122 120.43288 46.499916 120.3998C 72.003716 120.36673 92.65647 99.67381 92.64 74.17C 92.59033 48.633022 71.856995 27.966835 46.32 28zM46.32 115.57C 23.482155 115.5148 5.006954 96.96803 5.0400505 74.13015C 5.0731506 51.292267 23.60203 32.799126 46.43993 32.810123C 69.27783 32.82112 87.788895 51.33209 87.8 74.17C 87.76689 97.04887 69.19889 115.57211 46.320004 115.55z" stroke="none" fill="#313131" fill-rule="nonzero" />
    <path d="M103.84 108.3L109.75 108.3L109.75 72.66C 109.75 59.860004 119.05 50.660004 131.13 50.660004C 143.57 50.660004 150.70001 58.990005 150.70001 71.66L150.70001 71.66L150.70001 108.26L156.62001 108.26L156.62001 70.61C 156.62001 55.870003 147.56001 45.239998 131.98001 45.239998C 120.750015 45.239998 113.86001 50.92 109.750015 58.17L109.750015 58.17L109.750015 46.69L103.84001 46.69L103.84 108.3zM178.72 20.11L184.64 20.11L184.64 108.3L178.72 108.3zM215.44 128C 224.26001 128 230.54001 123.4 235.97 110.479996L235.97 110.479996L262.67 46.689995L256.14 46.689995L233.92001 101.78L208.31001 46.69L201.43001 46.69L231 107.94C 226.41 118.69 222.18 122.44 215.78 122.44C 212.14145 122.57782 208.52777 121.78625 205.28 120.14L205.28 120.14L203.22 125.34C 207.038 127.1446 211.21738 128.05435 215.44 128z" stroke="none" fill="#313131" fill-rule="nonzero" />
    <path d="M327.73 42.75C 329.4567 40.11667 331.20337 37.36667 332.97 34.5C 334.74 31.630001 336.34 28.880001 337.8 26.25C 339.25998 23.619999 340.44 21.25 341.37 19.15C 342.15283 17.613344 342.6284 15.938736 342.77 14.219999C 342.84607 11.810991 342.05472 9.454733 340.53998 7.5799994C 338.9401 5.691243 336.93787 4.1844273 334.68 3.1699996C 332.04636 1.9675884 329.25507 1.1460209 326.38998 0.72999954C 323.1967 0.2408905 319.97058 -0.0031585693 316.74 -4.7683716E-07C 305.87262 -0.08555603 295.03137 1.0787659 284.43 3.4699996C 275.1656 5.573639 266.12424 8.560638 257.43 12.389999C 249.92068 15.68544 242.75014 19.70443 236.01999 24.39C 230.50592 28.229996 225.28786 32.47866 220.40999 37.1C 216.83981 40.40919 213.64091 44.097664 210.87 48.1C 208.72333 51.393333 207.65 53.763336 207.65 55.21C 207.60585 56.947445 208.1562 58.647896 209.20999 60.03C 210.12416 61.277294 211.2891 62.319603 212.62999 63.09C 213.65099 63.732132 214.8455 64.04299 216.04999 63.98C 217.04999 63.87 217.60999 63.34 217.60999 62.37C 217.60999 60.5 218.77998 57.79 221.12999 54.22C 224.0469 49.991615 227.39847 46.08035 231.12999 42.550003C 236.02179 37.86328 241.25623 33.548035 246.79 29.640003C 260.3185 20.03817 275.48755 12.989098 291.55 8.840004C 300.45508 6.5582275 309.61743 5.4356155 318.81 5.500004C 321.13068 5.411434 323.44894 5.7295628 325.66 6.440004C 327.06348 6.8940687 328.32935 7.6955657 329.34 8.770004C 330.102 9.633026 330.6046 10.693766 330.79 11.830004C 330.9598 12.858044 331.04675 13.898042 331.05002 14.940003C 330.92447 16.833477 330.432 18.684479 329.6 20.390003C 328.4859 22.918858 327.2238 25.37969 325.82 27.760002C 324.26 30.42667 322.53003 33.173336 320.63 36C 318.73 38.826668 316.85333 41.493332 315 44C 307.57825 44.88852 300.22714 46.291916 293 48.2C 287.3311 49.669357 281.8236 51.702843 276.56 54.27C 272.71332 56.079052 269.21896 58.557613 266.24 61.59C 263.85333 64.183334 262.66 66.82667 262.66 69.52C 262.62433 71.01803 262.96835 72.50071 263.66 73.829994C 264.16806 74.866844 264.9111 75.77082 265.83002 76.46999C 266.43814 76.972694 267.22745 77.2008 268.01 77.09999C 268.6767 76.95999 269.01 76.369995 269.01 75.329994C 269.01 74.329994 269.89 72.829994 271.65002 70.92C 273.96768 68.56413 276.544 66.47758 279.33002 64.7C 283.27628 62.130676 287.42694 59.8898 291.74002 57.999996C 297.26907 55.55935 302.99664 53.59552 308.86002 52.129997C 304.70667 57.53 300.54 62.839996 296.36002 68.06C 292.18002 73.28 288.41003 78.346664 285.05002 83.259995C 281.96246 87.71626 279.24023 92.41496 276.91 97.31C 274.9858 101.16867 273.9246 105.39996 273.80002 109.71C 273.78705 111.430374 274.03314 113.1429 274.53003 114.79C 274.9542 116.26333 275.6017 117.66293 276.45004 118.94C 277.1713 120.04699 278.1062 120.99892 279.20004 121.740005C 280.14294 122.39308 281.2631 122.742035 282.41003 122.740005C 283.02454 122.76677 283.62357 122.54303 284.07004 122.12C 284.48987 121.68984 284.77786 121.148544 284.90002 120.560005C 285.04456 119.87852 285.13153 119.18607 285.16003 118.490005L285.16003 118.490005L285.16003 116.310005C 285.16003 112.576675 286.35336 108.15001 288.74002 103.03001C 291.44272 97.33221 294.4918 91.80513 297.87003 86.48001C 301.56335 80.57335 305.66003 74.436676 310.16003 68.07001C 314.66003 61.70334 319.05005 55.410007 323.33005 49.19001C 330.5393 48.112823 337.8208 47.591293 345.11005 47.63001C 346.63345 47.593468 348.1537 47.785603 349.62006 48.20001C 350.6401 48.50568 351.64172 48.8696 352.62006 49.29001C 353.13385 49.54653 353.66925 49.757347 354.22006 49.92001C 354.54007 49.98001 354.69006 49.71001 354.69006 49.090008C 354.6586 47.285786 353.91443 45.567333 352.62006 44.31001C 351.2334 42.863342 349.1234 42.136673 346.29007 42.13001L346.29007 42.13001L327.73 42.75z" stroke="none" fill="#00AFF0" fill-rule="nonzero" />
    <path d="M399.14 64.07C 397.3067 66.52333 395.25 69.236664 392.97 72.21C 390.69 75.183334 388.27002 78.21001 385.71 81.29C 383.15002 84.37001 380.68 87.170006 378.3 89.69C 376.25037 91.89624 374.06616 93.97356 371.75998 95.91C 369.76 97.543335 368.18665 98.356674 367.03998 98.350006C 365.44998 98.350006 364.72998 97.590004 364.86 96.07001C 365.1648 94.077515 365.84335 92.16055 366.86 90.420006C 368.02002 88.14 369.48 85.66667 371.24 83C 373.00998 80.3 374.72998 77.8 376.43 75.48C 378.13 73.16 379.57 71.19 380.78 69.560005C 381.50095 68.72431 382.11252 67.80022 382.6 66.810005C 382.6 66.54001 382.39 66.240005 381.98 65.93001C 381.4873 65.57636 380.96545 65.26524 380.42 65.00001C 379.80002 64.69001 379.14 64.40001 378.42 64.12001C 377.77332 63.85373 377.10394 63.646225 376.42 63.50001C 377.13028 61.677773 377.51608 59.74528 377.56003 57.790012C 377.576 56.106262 377.38455 54.426964 376.99002 52.790012C 376.65872 51.36801 376.04303 50.02777 375.18002 48.850014C 374.32486 47.723316 373.2005 46.829327 371.91003 46.250015C 370.32895 45.58634 368.624 45.269222 366.91003 45.320015C 363.0248 45.309082 359.17755 46.084652 355.60004 47.600014C 351.9673 49.149452 348.56528 51.192 345.49005 53.670013C 342.3105 56.231426 339.42303 59.13564 336.88007 62.330013C 334.391 65.43997 332.16968 68.7552 330.24005 72.24001C 328.4985 75.40007 327.0781 78.726654 326.00006 82.17001C 325.07278 84.98336 324.56732 87.91854 324.50006 90.88001C 324.42224 93.50525 324.88165 96.11869 325.85007 98.56001C 326.63205 100.457726 327.8159 102.16351 329.32007 103.56001C 330.6516 104.7886 332.22528 105.725296 333.94006 106.31001C 335.43784 106.83865 337.01193 107.11902 338.60007 107.140015C 340.63086 107.13791 342.62253 106.581215 344.36008 105.530014C 346.1056 104.54612 347.72995 103.361404 349.20007 102.000015C 350.85223 100.41045 352.31528 98.635345 353.56006 96.710014C 353.33804 98.47743 353.4431 100.27062 353.87006 102.000015C 354.24237 103.36438 354.97864 104.60185 356.00006 105.58002C 357.07007 106.66002 358.78006 107.19002 361.13007 107.19002C 362.93008 107.19002 365.10675 106.25668 367.66006 104.390015C 370.56342 102.22468 373.28882 99.83034 375.81006 97.23001C 378.6834 94.33002 381.63672 91.06335 384.67004 87.43001C 387.7034 83.79668 390.5734 80.23334 393.28003 76.740005C 395.98004 73.25334 398.4367 69.98667 400.65002 66.94C 402.86337 63.893337 404.59003 61.506668 405.83002 59.780003C 406.0898 59.441475 406.20163 59.012257 406.14 58.590004C 406.09653 58.249386 405.88135 57.954895 405.57 57.810005C 405.20786 57.666344 404.81165 57.631588 404.43 57.710007C 403.93396 57.80631 403.50174 58.10778 403.24 58.54001C 402.34 59.766678 400.97333 61.610012 399.13998 64.07001L399.13998 64.07001L399.14 64.07zM335.31 98.3C 334.77127 95.247 334.91125 92.11283 335.72 89.12C 336.70483 85.00913 338.11234 81.01119 339.92 77.19C 341.85562 72.97632 344.22867 68.97769 347 65.26C 349.5555 61.767365 352.61554 58.67363 356.08 56.08C 358.97174 53.771553 362.5408 52.475296 366.24 52.390003C 367.4898 52.294838 368.69638 52.869564 369.41 53.9C 370.11618 55.071148 370.46384 56.423492 370.41 57.79C 370.42026 60.031578 369.92462 62.24657 368.96 64.270004C 368.07022 66.1767 367.0127 68.00055 365.8 69.72C 364.84485 71.0825 363.80267 72.3819 362.68 73.61C 362.1332 74.10942 361.66165 74.685394 361.28 75.32C 361.4353 75.738266 361.66574 76.12462 361.96 76.46C 362.42676 77.10928 362.92746 77.733475 363.46 78.33C 361.59998 80.99667 359.64667 83.74667 357.6 86.58C 355.6843 89.230865 353.62445 91.77481 351.43 94.200005C 349.58908 96.276215 347.53815 98.156235 345.31 99.810005C 343.68744 101.11818 341.69174 101.877945 339.61 101.98C 337.28 102 335.86 100.76 335.31 98.3z" stroke="none" fill="#00AFF0" fill-rule="nonzero" />
    <path d="M428.44 104.37C 431.39142 102.225845 434.15173 99.83023 436.69 97.21001C 439.56335 94.31001 442.48334 91.04334 445.45 87.41C 448.4167 83.77667 451.21667 80.21333 453.85 76.72C 456.47668 73.23334 458.86337 69.96667 461.01 66.92C 463.1567 63.873333 464.85004 61.486664 466.09 59.76C 466.3498 59.42147 466.4616 58.992252 466.4 58.57C 466.3565 58.22938 466.14133 57.93489 465.83 57.79C 465.46783 57.64634 465.07162 57.611584 464.68997 57.690002C 464.19394 57.786304 463.76172 58.087776 463.49997 58.520004C 462.59998 59.760006 461.2333 61.61001 459.39996 64.07001C 457.56665 66.530014 455.50998 69.24335 453.22995 72.21001C 450.94995 75.18334 448.52994 78.21001 445.96994 81.29001C 443.40994 84.37001 440.9366 87.17001 438.54993 89.69001C 436.49945 91.898895 434.31177 93.97637 431.99994 95.91001C 429.99994 97.54335 428.42664 98.35668 427.27994 98.35001C 427.2299 97.06582 427.53436 95.79264 428.15994 94.67001C 429.09662 92.765686 430.19043 90.94267 431.42993 89.22002C 432.8833 87.14668 434.4566 84.93668 436.14993 82.59002C 437.83994 80.23002 439.56995 77.80002 441.32993 75.27002C 443.0899 72.74002 444.69992 70.27002 446.1599 67.85002C 447.51587 65.605095 448.70892 63.265778 449.72992 60.85002C 450.58582 58.99301 451.0618 56.983643 451.1299 54.94002C 451.26187 52.788506 450.7201 50.649345 449.57993 48.820023C 448.53995 47.36669 446.84662 46.640022 444.49994 46.640022C 442.0013 46.710335 439.55884 47.397392 437.38995 48.640022C 434.71484 50.092873 432.1951 51.815147 429.86996 53.78002C 427.3699 55.864258 424.98322 58.08071 422.71997 60.42002C 420.43335 62.773354 418.39334 64.98669 416.59998 67.06002C 414.80667 69.133354 413.33667 70.84335 412.18997 72.19002C 411.64212 72.939384 410.99637 73.61202 410.26996 74.19002C 410.05997 74.19002 410.35995 73.430016 411.14996 71.90002C 411.93997 70.37002 412.87997 68.570015 413.94995 66.460014C 415.01993 64.35001 416.00995 62.140015 416.94995 59.820015C 417.761 57.918728 418.21848 55.885452 418.29996 53.820015C 418.3525 52.34747 417.82874 50.912476 416.83997 49.820015C 415.9535 48.83678 414.879 48.04112 413.67996 47.480015C 412.70596 47.006866 411.6502 46.7251 410.56998 46.650013C 409.63998 46.650013 409.16998 46.740013 409.16998 47.02001C 408.99225 50.079685 408.27097 53.083263 407.03998 55.89001C 405.45813 59.88405 403.67596 63.795536 401.69998 67.61001C 399.56 71.79001 397.24335 76.02667 394.74997 80.32001C 392.25665 84.61334 389.9333 88.53334 387.77997 92.08001C 385.64 95.57334 383.86 98.443344 382.43997 100.69001C 380.8835 101.303154 379.39542 102.07736 378 103C 378.06262 103.36802 378.22128 103.71298 378.46 104C 378.85605 104.53228 379.32767 105.003914 379.86 105.4C 380.5289 105.90747 381.2619 106.3244 382.03998 106.64C 382.8958 106.99324 383.81418 107.170105 384.74 107.159996C 385.28998 107.159996 386.28 106.38 387.74 104.829994C 389.19998 103.27999 390.88998 101.20999 392.93 98.649994C 394.97 96.09 397.25 93.16999 399.77 89.88999C 402.28998 86.60999 404.88998 83.24999 407.55 79.81999C 410.21 76.38999 412.90997 73.049995 415.63998 69.759995C 418.37 66.46999 420.99 63.559994 423.46997 60.999992C 425.59225 58.76825 427.88232 56.702183 430.31998 54.819992C 432.38666 53.273327 434.11664 52.49666 435.50998 52.48999C 437.22998 52.48999 437.86996 53.19999 437.41998 54.61999C 436.64334 56.629814 435.5789 58.51618 434.25998 60.21999C 432.6 62.53999 430.56 65.23666 428.13998 68.30999C 425.71997 71.38332 423.40332 74.563324 421.18997 77.84999C 419.05298 81.01118 417.14795 84.32329 415.48996 87.759995C 414.00366 90.654976 413.18686 93.84693 413.09995 97.09999C 412.9981 98.83384 413.28156 100.568726 413.92993 102.17999C 414.46912 103.5057 415.32388 104.6797 416.41992 105.59999C 417.86346 106.72762 419.67227 107.28308 421.4999 107.15999C 423.4999 107.16999 425.8099 106.23999 428.4399 104.36999L428.4399 104.36999L428.44 104.37z" stroke="none" fill="#00AFF0" fill-rule="nonzero" />
    <path d="M504.31 62.46C 503.10333 64.119995 501.72 66.003334 500.16 68.11C 498.6 70.216675 496.93335 72.44667 495.16 74.8C 493.36002 77.16 491.52667 79.44334 489.66 81.65C 487.80002 83.86 485.98 85.94 484.22 87.87C 482.67175 89.613716 481.0008 91.24457 479.22 92.75C 479.57477 91.5793 479.8356 90.38219 480 89.17C 480.1677 87.950424 480.25455 86.72104 480.26 85.49C 480.25793 82.51402 479.9801 79.54468 479.43002 76.619995C 478.87003 73.67999 478.27002 70.70999 477.61002 67.7C 476.95 64.69 476.35 61.699997 475.80002 58.619995C 475.24304 55.575005 474.9652 52.485504 474.97003 49.389996C 474.92883 47.48299 475.35452 45.59484 476.21002 43.889996C 476.98132 42.392387 477.88492 40.966713 478.91003 39.629997C 479.91003 38.389996 480.77002 37.269997 481.60004 36.26C 482.3211 35.51474 482.76266 34.543312 482.85004 33.51C 482.8086 32.88652 482.46005 32.32438 481.92004 32.01C 481.21457 31.53888 480.3776 31.304247 479.53003 31.339998C 477.4293 31.356321 475.3514 31.77733 473.41003 32.579998C 469.25067 34.248497 465.81497 37.333546 463.71002 41.289997C 462.6484 43.2698 462.09842 45.48354 462.11002 47.729996C 462.18314 50.46265 462.47745 53.184853 462.99002 55.869995C 463.57 59.289993 464.2 62.989994 464.85 66.96999C 465.5 70.95 466.03 74.96999 466.41 78.96999C 466.77426 82.627625 466.77426 86.31236 466.41 89.96999C 466.20105 92.80584 465.31268 95.54977 463.82 97.96999C 462.43 100.049995 460.26 101.079994 457.28 101.079994C 454.3 101.079994 452.28 100.31 451.11 98.74999C 449.93762 97.29349 449.29892 95.4797 449.3 93.60999C 449.34903 92.818184 449.13068 92.03285 448.68 91.37999C 448.38138 90.926445 447.87305 90.65534 447.33 90.65999C 446.74518 90.75644 446.24265 91.12868 445.97998 91.65999C 445.5002 92.55109 445.2851 93.56072 445.36 94.56999C 445.37308 96.08858 445.63315 97.594925 446.12997 99.02999C 446.6425 100.51378 447.45618 101.8756 448.52 103.02999C 449.6742 104.26915 451.0694 105.2594 452.62 105.939995C 454.48502 106.74094 456.50095 107.1298 458.53 107.079994L458.53 107.079994L460.08 107.079994C 463.5982 107.01906 467.0417 106.05487 470.08 104.27999C 473.67386 102.27989 477.0287 99.87782 480.08 97.119995C 483.45688 94.08317 486.61163 90.8081 489.52 87.31999C 492.50668 83.77333 495.29333 80.24 497.87997 76.71999C 500.46664 73.2 502.78333 69.93333 504.83 66.91999C 506.87 63.87999 508.5133 61.493324 509.75998 59.75999C 510.01886 59.42149 510.11078 58.98406 510.00998 58.569992C 509.93817 58.22663 509.7083 57.93742 509.38998 57.789993C 509.0449 57.648087 508.6651 57.613247 508.3 57.689995C 507.82388 57.802223 507.413 58.10137 507.15997 58.519997C 506.47333 59.506668 505.52332 60.82 504.30997 62.459995L504.30997 62.459995L504.31 62.46z" stroke="none" fill="#00AFF0" fill-rule="nonzero" />
    <path d="M65.53 71.19L65.53 67.420006C 65.525795 62.89829 63.693638 58.57036 60.449997 55.420006C 57.20462 52.21163 52.823563 50.414642 48.26 50.420006L48.26 50.420006L45.16 50.420006C 40.599895 50.41728 36.22291 52.21407 32.98 55.420006C 29.735226 58.568745 27.905859 62.8986 27.91 67.420006L27.91 67.420006L27.91 71.19L25.77 75.05L25.77 80.61C 25.777687 85.63165 27.811188 90.43778 31.41 93.94C 35.038002 97.49772 39.918705 99.48735 45 99.48L45 99.48L48.45 99.48C 53.51829 99.48115 58.38428 97.49165 62 93.94C 65.60536 90.44143 67.6431 85.633804 67.65 80.61L67.65 80.61L67.65 75.05L65.53 71.19zM48.73 88.25L48.73 92.7C 48.734863 93.36328 48.398773 93.98259 47.84 94.34L47.84 94.34L47 94.34C 46.900566 94.35508 46.79943 94.35508 46.7 94.34L46.7 94.34L46.5 94.34C 46.4169 94.34885 46.3331 94.34885 46.25 94.34L46.25 94.34L45.87 94.34C 45.30065 93.97473 44.954517 93.34643 44.95 92.67L44.95 92.67L44.95 88.25C 42.55785 87.32116 41.174767 84.81198 41.666676 82.29342C 42.15858 79.77486 44.384155 77.97049 46.95 78.01L46.95 78.01L47.06 78.01C 49.625847 77.97049 51.85142 79.77486 52.343327 82.29342C 52.835236 84.81198 51.452152 87.32116 49.06 88.25zM57.82 71.31L35.61 71.31L35.61 67.42C 35.614967 64.92163 36.628174 62.531036 38.420002 60.789997C 40.213272 59.01123 42.634182 58.0091 45.16 58L45.16 58L48.26 58C 50.78603 58.008026 53.207333 59.010315 55 60.79C 56.78802 62.533638 57.800514 64.92255 57.81 67.42z" stroke="none" fill="#00AFF0" fill-rule="nonzero" />
</g>
</svg>